<svg xmlns="http://www.w3.org/2000/svg" width="367.8" height="164.4" viewBox="0 0 367.8 164.4" overflow="scroll">
  <style>
    .dLLogoW{fill:#FFFFFF;} .dLLogoB{fill:#3949AB;}
  </style>
  <path class="dLLogoW" d="M165.8 0h-18.4v18.4h18.4v18.5h-18.4V18.4H129V0H92.1v18.4h18.5v18.5H92.1v18.4H73.7v18.4h18.4v18.4h18.5V73.7H129V55.3h18.4v18.4h18.4V55.3h18.5v18.4h-18.5v18.4h-18.4v18.5h55.3V0h-18.4"/>
  <path class="dLLogoW" d="M129 73.7h18.4v18.4H129zm-18.4 18.4H129v18.4h-18.4zM92.1 36.9V18.4H73.7V0H55.3v55.3h18.4V36.9M55.3 92.1h18.4v18.4H55.3zM36.9 55.3h18.4v18.4H36.9zm0-36.9V0H0v18.4h18.4v18.5h18.5M0 36.9h18.4v18.4H0zm312 51.4V0l-58.3.4c36.2 2.5 50.8 27.1 50.8 54.6 0 29.5-16.1 52.1-48.6 55.3l111.9-.5V88.3H312z"/>
  <path class="dLLogoW" d="M276 55.6c0-22.9-11.2-34-31.8-34H231v67.7h13.7c20.6 0 31.3-11.3 31.3-33.7z"/>
  <path class="dLLogoB" d="M80.6 154.9l4.2-26.5h7.8c7.1 0 11.8 3.7 11.8 11.5 0 9-6.2 15-16.2 15h-7.6zm8.5-4.6c5.1 0 9.9-3.2 9.9-9.9 0-4.9-2.6-7.6-6.5-7.6H89l-2.8 17.5h2.9zm14.1 13.5l7.9-11.9-4.7-14.9h5.1l2.7 10.4L121 137h5l-17.7 26.8h-5.1zm32.7-8.9l1.5-9.6c.4-2.5.6-4.8-1.9-4.8-1.8 0-3.4 1.2-4 2l-2 12.4H125l2.8-17.9h4.6l-.3 1.8c1-.9 3-2.3 5.9-2.3 3.4 0 5 2 4.3 6.4l-1.9 12h-4.5zm23.4-1.7c-1.3 1-4.2 2.2-7.7 2.2-5.2 0-7-2.6-7-5.5 0-5 5.2-6.7 8.1-6.7 1.5 0 2.9.4 3.7 1.2l.3-1.8c.2-1.5-.7-2.5-3-2.5-2 0-4.1.7-4.8 1l-.8-3.2c1.7-.8 3.9-1.5 6.6-1.5 5.4 0 6.8 2.8 6.1 7.2l-1.5 9.6zm-3.5-5.6c-.6-.6-1.6-1.2-2.9-1.2-1.8 0-3.6 1-3.6 2.9 0 1.4.9 2.6 3 2.6.9 0 2.1-.2 3-.7l.5-3.6zm28.3 7.3l1.8-11.3c.3-2.1-.2-3.1-1.8-3.1s-3.1 1.1-3.9 1.9l-2 12.5h-4.6l1.8-11.4c.3-2-.5-2.9-1.9-2.9-1.6 0-3.2 1.2-3.8 1.9l-2 12.5h-4.6l2.9-18h4.6l-.3 1.9c.8-.7 3-2.4 5.7-2.4s3.4 1.8 3.6 2.7c1.9-1.3 3.9-2.7 6.7-2.7 3.2 0 5 1.9 4.3 6.4l-1.9 12h-4.6zm9 0l2.8-17.9h4.6l-2.8 17.9h-4.6zm5.5-20.9c-1.4 0-2.4-1-2.4-2.5 0-1.9 1.5-3.3 3.3-3.3 1.6 0 2.5 1 2.5 2.4 0 2-1.5 3.4-3.4 3.4zm18.8 18.9c-.7.7-3.4 2.5-7.1 2.5-5.1 0-7.7-3.5-7.7-8.1 0-6.5 5.1-10.9 10.8-10.9 3.4 0 5.2 1.6 5.6 2l-2 3.3c-.5-.5-1.9-1.6-3.7-1.6-2.9 0-6 2.7-6 6.6 0 2.9 1.7 4.9 4.1 4.9 2.1 0 4.4-1.4 5-1.9l1 3.2zm11.8 1.9l4.2-26.5h5l-3.5 21.9h10.5l-.7 4.5h-15.5zm34.1-1.6c-1 .8-4 2.2-7.6 2.2-5.4 0-8.3-3.1-8.3-8 0-6.1 4.6-10.9 10.6-10.9 5.8 0 7.8 4.4 7 9.5l-.3 1.8h-13c0 3.2 2.7 4.1 5.3 4.1 2.8 0 4.7-1.1 5.4-1.8l.9 3.1zm-2.5-9c.4-2.3-.7-4.2-3.2-4.2-2.4 0-4.3 1.7-5.3 4.2h8.5zm20.6 9c-1.3 1-4.2 2.2-7.7 2.2-5.2 0-7-2.6-7-5.5 0-5 5.2-6.7 8.1-6.7 1.5 0 2.9.4 3.7 1.2l.3-1.8c.2-1.5-.7-2.5-3-2.5-2 0-4.1.7-4.8 1l-.8-3.2c1.7-.8 3.9-1.5 6.6-1.5 5.4 0 6.8 2.8 6.1 7.2l-1.5 9.6zm-3.5-5.6c-.6-.6-1.6-1.2-2.9-1.2-1.8 0-3.6 1-3.6 2.9 0 1.4.9 2.6 3 2.6.9 0 2.1-.2 3-.7l.5-3.6zm7.4 7.3l2.8-17.9h4.6l-.5 2.8c.5-.9 2.2-3.3 4.3-3.3 1.6 0 2.3.5 2.9.9l-2.2 4.3c-.6-.4-1.2-.9-2.2-.9-2 0-3.3 2.5-3.6 4.2l-1.6 9.9h-4.5zm24.7 0l1.5-9.6c.4-2.5.6-4.8-1.9-4.8-1.8 0-3.4 1.2-4 2l-2 12.4H299l2.8-17.9h4.6l-.3 1.8c1-.9 3-2.3 5.9-2.3 3.4 0 5 2 4.3 6.4l-1.9 12H310zm9 0l2.8-17.9h4.6l-2.8 17.9H319zm5.6-20.9c-1.4 0-2.4-1-2.4-2.5 0-1.9 1.5-3.3 3.3-3.3 1.6 0 2.5 1 2.5 2.4-.1 2-1.5 3.4-3.4 3.4zm14.5 20.9l1.5-9.6c.4-2.5.6-4.8-1.9-4.8-1.8 0-3.4 1.2-4 2l-2 12.4h-4.6L331 137h4.6l-.3 1.8c1-.9 3-2.3 5.9-2.3 3.4 0 5 2 4.3 6.4l-1.9 12h-4.5zm20.4-1.4c-1.2 1.2-3 1.9-4.7 1.9-3.2 0-6.5-2.8-6.5-8.1 0-6.6 5.1-10.9 11.6-10.9 2.8 0 5 .8 6.5 1.7l-2.8 17.6c-1.2 7.5-5.8 8.7-9.7 8.7-4.1 0-6.7-1.4-7.6-2.2l2.4-3.4c.6.7 2.9 1.9 5.5 1.9 2.5 0 4.2-1.2 4.7-4.3l.6-2.9zm2.1-12.7c-.7-.3-1.5-.6-2.5-.6-2.8 0-5.7 2.3-5.7 6.7 0 2.2.7 4.7 3.3 4.7 1.5 0 2.8-.9 3.5-1.9l1.4-8.9z"/>
</svg>